{
    "asset" : {
        "generator" : "Khronos glTF Blender I/O v1.1.45",
        "version" : "2.0"
    },
    "scene" : 0,
    "scenes" : [
        {
            "name" : "Scene",
            "nodes" : [
                3
            ]
        }
    ],
    "nodes" : [
        {
            "mesh" : 0,
            "name" : "Back_Ports"
        },
        {
            "mesh" : 1,
            "name" : "Cable",
            "translation" : [
                -0.029349293559789658,
                0,
                0
            ]
        },
        {
            "mesh" : 2,
            "name" : "Leds"
        },
        {
            "children" : [
                0,
                1,
                2
            ],
            "mesh" : 3,
            "name" : "Cube"
        }
    ],
    "animations" : [
        {
            "channels" : [
                {
                    "sampler" : 0,
                    "target" : {
                        "node" : 3,
                        "path" : "rotation"
                    }
                }
            ],
            "name" : "Idle",
            "samplers" : [
                {
                    "input" : 16,
                    "interpolation" : "LINEAR",
                    "output" : 17
                }
            ]
        },
        {
            "channels" : [
                {
                    "sampler" : 0,
                    "target" : {
                        "node" : 3,
                        "path" : "rotation"
                    }
                }
            ],
            "name" : "Spin",
            "samplers" : [
                {
                    "input" : 16,
                    "interpolation" : "LINEAR",
                    "output" : 18
                }
            ]
        },
        {
            "channels" : [
                {
                    "sampler" : 0,
                    "target" : {
                        "node" : 3,
                        "path" : "rotation"
                    }
                }
            ],
            "name" : "SpinBack",
            "samplers" : [
                {
                    "input" : 16,
                    "interpolation" : "LINEAR",
                    "output" : 19
                }
            ]
        },
        {
            "channels" : [
                {
                    "sampler" : 0,
                    "target" : {
                        "node" : 1,
                        "path" : "translation"
                    }
                }
            ],
            "name" : "Cable_In",
            "samplers" : [
                {
                    "input" : 20,
                    "interpolation" : "LINEAR",
                    "output" : 21
                }
            ]
        }
    ],
    "materials" : [
        {
            "doubleSided" : true,
            "emissiveFactor" : [
                0,
                0,
                0
            ],
            "name" : "Cable",
            "pbrMetallicRoughness" : {
                "baseColorFactor" : [
                    0.04928424581885338,
                    0.23884643614292145,
                    0.8000000715255737,
                    1
                ],
                "metallicFactor" : 0,
                "roughnessFactor" : 0.5
            }
        },
        {
            "doubleSided" : true,
            "emissiveFactor" : [
                0,
                0,
                0
            ],
            "name" : "Leds",
            "pbrMetallicRoughness" : {
                "baseColorFactor" : [
                    0.04056022688746452,
                    0.8000000715255737,
                    0.139836385846138,
                    1
                ],
                "metallicFactor" : 0,
                "roughnessFactor" : 0.5
            }
        },
        {
            "doubleSided" : true,
            "emissiveFactor" : [
                0,
                0,
                0
            ],
            "name" : "Base",
            "pbrMetallicRoughness" : {
                "baseColorFactor" : [
                    0.011087627150118351,
                    0.011087627150118351,
                    0.011087627150118351,
                    1
                ],
                "metallicFactor" : 0,
                "roughnessFactor" : 0.5
            }
        }
    ],
    "meshes" : [
        {
            "name" : "Cube.003",
            "primitives" : [
                {
                    "attributes" : {
                        "POSITION" : 0,
                        "NORMAL" : 1,
                        "TEXCOORD_0" : 2
                    },
                    "indices" : 3
                }
            ]
        },
        {
            "name" : "Cube.004",
            "primitives" : [
                {
                    "attributes" : {
                        "POSITION" : 4,
                        "NORMAL" : 5,
                        "TEXCOORD_0" : 6
                    },
                    "indices" : 7,
                    "material" : 0
                }
            ]
        },
        {
            "name" : "Cube.002",
            "primitives" : [
                {
                    "attributes" : {
                        "POSITION" : 8,
                        "NORMAL" : 9,
                        "TEXCOORD_0" : 10
                    },
                    "indices" : 11,
                    "material" : 1
                }
            ]
        },
        {
            "name" : "Cube.001",
            "primitives" : [
                {
                    "attributes" : {
                        "POSITION" : 12,
                        "NORMAL" : 13,
                        "TEXCOORD_0" : 14
                    },
                    "indices" : 15,
                    "material" : 2
                }
            ]
        }
    ],
    "accessors" : [
        {
            "bufferView" : 0,
            "componentType" : 5126,
            "count" : 336,
            "max" : [
                0.0012251697480678558,
                -0.01725688949227333,
                0.05739503353834152
            ],
            "min" : [
                -0.010088706389069557,
                -0.02843392640352249,
                -0.061197638511657715
            ],
            "type" : "VEC3"
        },
        {
            "bufferView" : 1,
            "componentType" : 5126,
            "count" : 336,
            "type" : "VEC3"
        },
        {
            "bufferView" : 2,
            "componentType" : 5126,
            "count" : 336,
            "type" : "VEC2"
        },
        {
            "bufferView" : 3,
            "componentType" : 5123,
            "count" : 504,
            "type" : "SCALAR"
        },
        {
            "bufferView" : 4,
            "componentType" : 5126,
            "count" : 70,
            "max" : [
                0.0012251697480678558,
                -0.019312845543026924,
                0.05521358549594879
            ],
            "min" : [
                -0.02771010249853134,
                -0.026377970352768898,
                0.04771721363067627
            ],
            "type" : "VEC3"
        },
        {
            "bufferView" : 5,
            "componentType" : 5126,
            "count" : 70,
            "type" : "VEC3"
        },
        {
            "bufferView" : 6,
            "componentType" : 5126,
            "count" : 70,
            "type" : "VEC2"
        },
        {
            "bufferView" : 7,
            "componentType" : 5123,
            "count" : 108,
            "type" : "SCALAR"
        },
        {
            "bufferView" : 8,
            "componentType" : 5126,
            "count" : 240,
            "max" : [
                0.01613493263721466,
                -0.031459592282772064,
                0.05285542458295822
            ],
            "min" : [
                0.014419427141547203,
                -0.03760666400194168,
                -0.05501050502061844
            ],
            "type" : "VEC3"
        },
        {
            "bufferView" : 9,
            "componentType" : 5126,
            "count" : 240,
            "type" : "VEC3"
        },
        {
            "bufferView" : 10,
            "componentType" : 5126,
            "count" : 240,
            "type" : "VEC2"
        },
        {
            "bufferView" : 11,
            "componentType" : 5123,
            "count" : 360,
            "type" : "SCALAR"
        },
        {
            "bufferView" : 12,
            "componentType" : 5126,
            "count" : 56,
            "max" : [
                0.014999999664723873,
                0.05999999865889549,
                0.07500000298023224
            ],
            "min" : [
                -0.014999999664723873,
                -0.05999999865889549,
                -0.07500000298023224
            ],
            "type" : "VEC3"
        },
        {
            "bufferView" : 13,
            "componentType" : 5126,
            "count" : 56,
            "type" : "VEC3"
        },
        {
            "bufferView" : 14,
            "componentType" : 5126,
            "count" : 56,
            "type" : "VEC2"
        },
        {
            "bufferView" : 15,
            "componentType" : 5123,
            "count" : 108,
            "type" : "SCALAR"
        },
        {
            "bufferView" : 16,
            "componentType" : 5126,
            "count" : 60,
            "max" : [
                2.5
            ],
            "min" : [
                0.041666666666666664
            ],
            "type" : "SCALAR"
        },
        {
            "bufferView" : 17,
            "componentType" : 5126,
            "count" : 60,
            "type" : "VEC4"
        },
        {
            "bufferView" : 18,
            "componentType" : 5126,
            "count" : 60,
            "type" : "VEC4"
        },
        {
            "bufferView" : 19,
            "componentType" : 5126,
            "count" : 60,
            "type" : "VEC4"
        },
        {
            "bufferView" : 20,
            "componentType" : 5126,
            "count" : 61,
            "max" : [
                2.5
            ],
            "min" : [
                0
            ],
            "type" : "SCALAR"
        },
        {
            "bufferView" : 21,
            "componentType" : 5126,
            "count" : 61,
            "type" : "VEC3"
        }
    ],
    "bufferViews" : [
        {
            "buffer" : 0,
            "byteLength" : 4032,
            "byteOffset" : 0
        },
        {
            "buffer" : 0,
            "byteLength" : 4032,
            "byteOffset" : 4032
        },
        {
            "buffer" : 0,
            "byteLength" : 2688,
            "byteOffset" : 8064
        },
        {
            "buffer" : 0,
            "byteLength" : 1008,
            "byteOffset" : 10752
        },
        {
            "buffer" : 0,
            "byteLength" : 840,
            "byteOffset" : 11760
        },
        {
            "buffer" : 0,
            "byteLength" : 840,
            "byteOffset" : 12600
        },
        {
            "buffer" : 0,
            "byteLength" : 560,
            "byteOffset" : 13440
        },
        {
            "buffer" : 0,
            "byteLength" : 216,
            "byteOffset" : 14000
        },
        {
            "buffer" : 0,
            "byteLength" : 2880,
            "byteOffset" : 14216
        },
        {
            "buffer" : 0,
            "byteLength" : 2880,
            "byteOffset" : 17096
        },
        {
            "buffer" : 0,
            "byteLength" : 1920,
            "byteOffset" : 19976
        },
        {
            "buffer" : 0,
            "byteLength" : 720,
            "byteOffset" : 21896
        },
        {
            "buffer" : 0,
            "byteLength" : 672,
            "byteOffset" : 22616
        },
        {
            "buffer" : 0,
            "byteLength" : 672,
            "byteOffset" : 23288
        },
        {
            "buffer" : 0,
            "byteLength" : 448,
            "byteOffset" : 23960
        },
        {
            "buffer" : 0,
            "byteLength" : 216,
            "byteOffset" : 24408
        },
        {
            "buffer" : 0,
            "byteLength" : 240,
            "byteOffset" : 24624
        },
        {
            "buffer" : 0,
            "byteLength" : 960,
            "byteOffset" : 24864
        },
        {
            "buffer" : 0,
            "byteLength" : 960,
            "byteOffset" : 25824
        },
        {
            "buffer" : 0,
            "byteLength" : 960,
            "byteOffset" : 26784
        },
        {
            "buffer" : 0,
            "byteLength" : 244,
            "byteOffset" : 27744
        },
        {
            "buffer" : 0,
            "byteLength" : 732,
            "byteOffset" : 27988
        }
    ],
    "buffers" : [
        {
            "byteLength" : 28720,
            "uri" : "Roteador_GrayBox.bin"
        }
    ]
}
