{
    "asset" : {
        "generator" : "Khronos glTF Blender I/O v1.1.45",
        "version" : "2.0"
    },
    "scene" : 0,
    "scenes" : [
        {
            "name" : "Scene",
            "nodes" : [
                0
            ]
        }
    ],
    "nodes" : [
        {
            "mesh" : 0,
            "name" : "Cylinder",
            "translation" : [
                0.0574929341673851,
                0.016340995207428932,
                0.08046148717403412
            ]
        }
    ],
    "animations" : [
        {
            "channels" : [
                {
                    "sampler" : 0,
                    "target" : {
                        "node" : 0,
                        "path" : "scale"
                    }
                }
            ],
            "name" : "CylinderAction",
            "samplers" : [
                {
                    "input" : 4,
                    "interpolation" : "LINEAR",
                    "output" : 5
                }
            ]
        }
    ],
    "materials" : [
        {
            "doubleSided" : true,
            "emissiveFactor" : [
                0,
                0,
                0
            ],
            "name" : "Material",
            "pbrMetallicRoughness" : {
                "baseColorFactor" : [
                    0.8000000715255737,
                    0.4168604016304016,
                    0.05221756920218468,
                    1
                ],
                "metallicFactor" : 0,
                "roughnessFactor" : 0.5
            }
        }
    ],
    "meshes" : [
        {
            "name" : "Cylinder",
            "primitives" : [
                {
                    "attributes" : {
                        "POSITION" : 0,
                        "NORMAL" : 1,
                        "TEXCOORD_0" : 2
                    },
                    "indices" : 3,
                    "material" : 0
                }
            ]
        }
    ],
    "accessors" : [
        {
            "bufferView" : 0,
            "componentType" : 5126,
            "count" : 512,
            "max" : [
                0.007497955579310656,
                0.0007453142898157239,
                0.007497943937778473
            ],
            "min" : [
                -0.007497957441955805,
                -0.0007453096332028508,
                -0.007497970014810562
            ],
            "type" : "VEC3"
        },
        {
            "bufferView" : 1,
            "componentType" : 5126,
            "count" : 512,
            "type" : "VEC3"
        },
        {
            "bufferView" : 2,
            "componentType" : 5126,
            "count" : 512,
            "type" : "VEC2"
        },
        {
            "bufferView" : 3,
            "componentType" : 5123,
            "count" : 768,
            "type" : "SCALAR"
        },
        {
            "bufferView" : 4,
            "componentType" : 5126,
            "count" : 61,
            "max" : [
                2.5
            ],
            "min" : [
                0
            ],
            "type" : "SCALAR"
        },
        {
            "bufferView" : 5,
            "componentType" : 5126,
            "count" : 61,
            "type" : "VEC3"
        }
    ],
    "bufferViews" : [
        {
            "buffer" : 0,
            "byteLength" : 6144,
            "byteOffset" : 0
        },
        {
            "buffer" : 0,
            "byteLength" : 6144,
            "byteOffset" : 6144
        },
        {
            "buffer" : 0,
            "byteLength" : 4096,
            "byteOffset" : 12288
        },
        {
            "buffer" : 0,
            "byteLength" : 1536,
            "byteOffset" : 16384
        },
        {
            "buffer" : 0,
            "byteLength" : 244,
            "byteOffset" : 17920
        },
        {
            "buffer" : 0,
            "byteLength" : 732,
            "byteOffset" : 18164
        }
    ],
    "buffers" : [
        {
            "byteLength" : 18896,
            "uri" : "Roteador_GrayBox_Interaction1.bin"
        }
    ]
}
